#define logo_width 128
#define logo_height 48
static char logo_bits[] = {
   0x00, 0x00, 0xe0, 0x83, 0x01, 0xe1, 0x07, 0x20, 0x00, 0x00, 0x00, 0x01,
   0x80, 0x03, 0x00, 0x00, 0x00, 0x00, 0x20, 0x84, 0xc1, 0x01, 0x04, 0x20,
   0x00, 0x00, 0x00, 0x01, 0x40, 0x00, 0x00, 0x00, 0x00, 0x00, 0x20, 0x44,
   0x02, 0x01, 0x02, 0xa0, 0xe3, 0x1d, 0x9e, 0x0f, 0x20, 0x00, 0x00, 0x00,
   0x00, 0x00, 0x20, 0x44, 0x02, 0x01, 0x02, 0x60, 0x24, 0x22, 0x20, 0x01,
   0xe0, 0x03, 0x00, 0x00, 0x00, 0x00, 0x20, 0x24, 0x04, 0x01, 0x01, 0x20,
   0x24, 0x22, 0x20, 0x01, 0x20, 0x04, 0x00, 0x00, 0x00, 0x00, 0xe0, 0x23,
   0x04, 0x01, 0x01, 0x20, 0x24, 0x22, 0x3e, 0x01, 0x20, 0x04, 0x00, 0x00,
   0x00, 0x00, 0x20, 0xe0, 0x07, 0x81, 0x00, 0x20, 0x24, 0x22, 0x21, 0x01,
   0x20, 0x04, 0x00, 0x00, 0x00, 0x00, 0x20, 0x10, 0x08, 0x81, 0x00, 0x20,
   0x24, 0x22, 0x21, 0x01, 0x20, 0x04, 0x00, 0x00, 0x00, 0x00, 0x20, 0x10,
   0xc8, 0x47, 0x00, 0xe0, 0x23, 0x22, 0x3e, 0x0e, 0xc0, 0x03, 0x00, 0x00,
   0x00, 0x00, 0x00, 0x00, 0x00, 0x00, 0x00, 0x00, 0x00, 0x00, 0x00, 0x00,
   0x00, 0x00, 0x00, 0x00, 0x00, 0x00, 0x00, 0x00, 0x00, 0x00, 0xf0, 0x0f,
   0x00, 0x00, 0x00, 0xf0, 0x0f, 0x00, 0x00, 0x00, 0x00, 0x00, 0x00, 0x00,
   0x00, 0x00, 0x00, 0x00, 0x00, 0x00, 0x00, 0x00, 0x00, 0x00, 0x00, 0x00,
   0x00, 0x00, 0x00, 0x00, 0x00, 0x00, 0x00, 0x00, 0x00, 0x00, 0x00, 0x00,
   0x00, 0x00, 0x00, 0x00, 0x00, 0x00, 0x00, 0x00, 0x00, 0x00, 0x00, 0x00,
   0x00, 0x00, 0x00, 0x00, 0x00, 0x00, 0x00, 0x00, 0x00, 0x00, 0x00, 0x00,
   0x60, 0x00, 0x00, 0x00, 0x00, 0x00, 0x00, 0x00, 0x00, 0x00, 0x00, 0x00,
   0x18, 0x00, 0x80, 0x01, 0x60, 0x00, 0x00, 0x00, 0x00, 0x00, 0x00, 0x03,
   0x00, 0x00, 0x06, 0x00, 0x18, 0x00, 0x80, 0x01, 0x60, 0x00, 0x00, 0x00,
   0x00, 0x00, 0x00, 0x03, 0x00, 0x00, 0x06, 0x00, 0x18, 0x00, 0x00, 0x00,
   0x60, 0x00, 0x00, 0x00, 0x00, 0x00, 0x00, 0x00, 0x00, 0x00, 0x00, 0x00,
   0x18, 0xc0, 0x87, 0xf1, 0x63, 0x0f, 0xf6, 0x3c, 0xfc, 0x60, 0x0f, 0xe3,
   0x07, 0x3f, 0xc6, 0x0f, 0x18, 0xf0, 0x8f, 0xf9, 0xe7, 0x1f, 0xfe, 0x7f,
   0xfc, 0xe3, 0x1f, 0xe3, 0x9f, 0x7f, 0xe6, 0x1f, 0x18, 0x30, 0x9c, 0x19,
   0xe4, 0x18, 0x8e, 0x63, 0x00, 0xe3, 0x18, 0x03, 0x98, 0x41, 0x66, 0x10,
   0x18, 0x18, 0x98, 0x19, 0x60, 0x18, 0x86, 0x61, 0xf0, 0x63, 0x18, 0x83,
   0x9f, 0x01, 0x66, 0x00, 0x18, 0xf8, 0x9f, 0xf1, 0x61, 0x18, 0x86, 0x61,
   0xfc, 0x63, 0x18, 0xe3, 0x1f, 0x1f, 0xc6, 0x07, 0x18, 0xf8, 0x9f, 0xc1,
   0x67, 0x18, 0x86, 0x61, 0x0e, 0x63, 0x18, 0x73, 0x18, 0x7c, 0x06, 0x1f,
   0x18, 0x18, 0x80, 0x01, 0x66, 0x18, 0x86, 0x61, 0x06, 0x63, 0x18, 0x33,
   0x18, 0x60, 0x06, 0x18, 0x18, 0x30, 0x90, 0x09, 0x66, 0x18, 0x86, 0x61,
   0x86, 0x63, 0x18, 0x33, 0x9c, 0x60, 0x26, 0x18, 0xf8, 0xf7, 0x9f, 0xf9,
   0x67, 0x18, 0x86, 0x61, 0xfe, 0x63, 0x18, 0xf3, 0x9f, 0x7f, 0xe6, 0x1f,
   0xf8, 0xc7, 0x8f, 0xf1, 0x63, 0x18, 0x86, 0x61, 0x7c, 0x63, 0x18, 0xe3,
   0x1b, 0x3f, 0xc6, 0x0f, 0x00, 0x00, 0x00, 0x00, 0x00, 0x00, 0x00, 0x00,
   0x00, 0x00, 0x00, 0x00, 0x00, 0x00, 0x00, 0x00, 0x00, 0x00, 0x00, 0x00,
   0x00, 0x00, 0x00, 0x00, 0x00, 0x00, 0x00, 0x00, 0x00, 0x00, 0x00, 0x00,
   0x00, 0x00, 0x00, 0x00, 0x00, 0x00, 0x00, 0x00, 0x00, 0x00, 0x00, 0x00,
   0x00, 0x00, 0x00, 0x00, 0x00, 0x00, 0x00, 0x00, 0x00, 0x06, 0x00, 0x00,
   0x00, 0x00, 0x00, 0x00, 0x00, 0x00, 0x00, 0x00, 0x00, 0x00, 0x00, 0x00,
   0x00, 0x06, 0x00, 0x00, 0x30, 0x00, 0x00, 0x00, 0x00, 0x00, 0x00, 0x00,
   0x00, 0x00, 0x00, 0x00, 0x00, 0x06, 0x00, 0x00, 0x30, 0x00, 0x00, 0x00,
   0x00, 0x00, 0x00, 0x00, 0x00, 0x00, 0x00, 0x00, 0x00, 0x06, 0x00, 0x00,
   0x00, 0x00, 0x00, 0x00, 0x00, 0x00, 0x00, 0x00, 0x00, 0x00, 0x00, 0x00,
   0xf0, 0x07, 0x1f, 0x06, 0x33, 0x7c, 0xf0, 0x01, 0x00, 0x00, 0x00, 0x00,
   0x00, 0x00, 0x00, 0x00, 0xf8, 0xc7, 0x3f, 0x8c, 0x31, 0xfe, 0xfc, 0x03,
   0x00, 0x00, 0x00, 0x00, 0x00, 0x00, 0x00, 0x00, 0x18, 0xc6, 0x70, 0x8c,
   0x31, 0x86, 0x0c, 0x07, 0x00, 0x00, 0x00, 0x00, 0x00, 0x00, 0x00, 0x00,
   0x0c, 0x66, 0x60, 0x8c, 0x31, 0x03, 0x06, 0x06, 0x00, 0x00, 0x00, 0x00,
   0x00, 0x00, 0x00, 0x00, 0x0c, 0xe6, 0x7f, 0x98, 0x30, 0x03, 0xfe, 0x07,
   0x00, 0x00, 0x00, 0x00, 0x00, 0x00, 0x00, 0x00, 0x0c, 0xe6, 0x7f, 0xd8,
   0x30, 0x03, 0xfe, 0x07, 0x00, 0x00, 0x00, 0x00, 0x00, 0x00, 0x00, 0x00,
   0x0c, 0x66, 0x00, 0xd8, 0x30, 0x03, 0x06, 0x00, 0x00, 0x00, 0x00, 0x00,
   0x00, 0x00, 0x00, 0x00, 0x1c, 0xc7, 0x40, 0x50, 0x30, 0x87, 0x0c, 0x04,
   0x00, 0x00, 0x00, 0x00, 0x00, 0x00, 0x00, 0x00, 0xf8, 0xc7, 0x7f, 0x70,
   0x30, 0xfe, 0xfc, 0x07, 0x00, 0x00, 0x00, 0x00, 0x00, 0x00, 0x00, 0x00,
   0xf0, 0x06, 0x3f, 0x20, 0x30, 0x7c, 0xf0, 0x03, 0x00, 0x00, 0x00, 0x00,
   0x00, 0x00, 0x00, 0x00, 0x00, 0x00, 0x00, 0x00, 0x00, 0x00, 0x00, 0x00,
   0x00, 0x00, 0x00, 0x00, 0x00, 0x00, 0x00, 0x00, 0x00, 0x00, 0x00, 0x00,
   0x00, 0x00, 0x00, 0x00, 0x00, 0x00, 0x00, 0x00, 0x00, 0x00, 0x00, 0x00,
   0x00, 0x00, 0x00, 0x00, 0x00, 0x00, 0x00, 0x00, 0x00, 0x00, 0x00, 0x00 };
